<svg version="1.1" id="Layer_1" xmlns="http://www.w3.org/2000/svg" xmlns:xlink="http://www.w3.org/1999/xlink" x="0px" y="0px"
	 width="100%" viewBox="0 0 848 912" enable-background="new 0 0 848 912" xml:space="preserve">
<path fill="#000000" opacity="1.000000" stroke="none"
	d="
M290.518372,835.531372
	C247.879776,819.220459 209.753250,796.089844 175.320923,766.795898
	C141.391312,737.929688 113.156212,704.215637 90.211258,666.082397
	C71.127441,634.366150 56.578255,600.651611 46.675053,564.972229
	C37.829102,533.101868 32.746998,500.694580 31.418367,467.571869
	C29.449156,418.479523 35.903851,370.657684 50.612175,323.859528
	C67.007591,271.693481 92.838043,224.664459 128.011963,182.863083
	C169.372620,133.709290 219.547333,96.403770 278.790955,71.226379
	C312.609192,56.854282 347.718048,47.395245 384.078278,43.188972
	C422.099487,38.790558 460.107574,39.605942 497.995300,46.214924
	C543.791077,54.203346 586.726807,69.809814 626.937439,92.920860
	C667.028870,115.963394 701.989258,145.280182 731.985779,180.481781
	C766.653503,221.165283 792.500122,266.877899 809.387268,317.568542
	C822.026245,355.507385 828.981506,394.437439 830.557800,434.513580
	C833.498779,509.289062 817.621948,579.684631 783.154053,645.905151
	C765.367432,680.077271 742.941101,710.990356 716.202942,738.843384
	C668.839417,788.181519 612.682495,823.223572 547.527283,843.884644
	C497.304321,859.810730 445.835968,864.710999 393.529633,859.929810
	C358.251556,856.705078 323.930145,848.696777 290.518372,835.531372
M307.439117,817.046082
	C308.226227,817.317505 309.007019,817.609070 309.801361,817.857422
	C325.149292,822.656311 336.735352,814.332275 336.640411,798.350830
	C336.528534,779.525085 336.203278,760.700378 335.910797,741.876099
	C335.826752,736.466187 334.887054,735.754761 329.573120,736.680542
	C316.240204,739.003113 302.798859,740.084351 289.298523,739.251526
	C272.245972,738.199585 256.246429,733.539734 241.774750,724.154907
	C224.243042,712.785706 213.757462,696.371948 206.256531,677.200500
	C197.920746,655.895203 185.461441,637.365295 165.352890,625.026550
	C162.823868,623.474731 160.557831,621.411621 158.414352,619.333374
	C155.221207,616.237244 150.912781,613.031006 152.582596,608.059082
	C154.371719,602.731873 159.963715,602.328186 164.738892,601.829590
	C175.209473,600.736267 184.909714,603.761597 194.062042,608.448853
	C210.499710,616.867371 221.685013,630.461121 231.099655,645.996094
	C242.222427,664.349609 257.508423,677.826904 279.118500,682.271423
	C296.555420,685.857727 313.505280,683.087341 330.124969,677.014465
	C335.236420,675.146729 337.907379,672.577576 338.791412,667.017761
	C341.045868,652.839355 346.335907,639.812439 355.291840,628.401489
	C358.758911,623.984070 358.439667,623.107117 353.040894,622.218384
	C334.646423,619.190369 316.383759,615.741699 298.656464,609.696960
	C253.502899,594.300415 220.780579,565.723816 203.580261,520.623169
	C196.365433,501.705261 192.239182,482.088257 190.495941,461.872162
	C188.802795,442.237061 188.016891,422.667847 191.192612,403.145203
	C195.681000,375.553040 206.950089,351.012848 225.000015,329.640808
	C226.713593,327.611816 227.657959,325.945221 226.723114,323.010315
	C216.514389,290.960083 219.192459,259.343231 230.092972,227.985031
	C231.487961,223.971985 233.681824,222.673615 237.752518,222.569321
	C254.162689,222.148880 269.276306,227.122040 284.090027,233.332153
	C301.057465,240.445160 316.822479,249.765839 331.951538,260.169342
	C334.897705,262.195251 337.597229,262.999176 341.227081,261.910095
	C349.512726,259.424194 358.000061,257.722107 366.506470,256.074463
	C389.486389,251.623398 412.710754,249.754776 436.036865,250.141922
	C464.571930,250.615524 492.813232,254.045715 520.374207,261.816071
	C524.360107,262.939819 527.266541,262.060089 530.535645,259.825470
	C549.020203,247.190094 568.344238,236.059937 589.634094,228.783218
	C601.312683,224.791550 613.172546,221.506622 625.769531,222.601044
	C628.546509,222.842285 630.317383,223.807175 631.346008,226.619736
	C642.890747,258.187408 645.443665,290.131195 635.446106,322.584442
	C634.545410,325.508423 634.999695,327.518372 636.967590,329.769531
	C646.465088,340.634003 654.017334,352.767120 659.798035,365.978699
	C670.772461,391.060638 673.965881,417.300140 672.597961,444.525299
	C671.429932,467.772034 668.582520,490.588593 661.294067,512.741821
	C648.379944,551.994629 623.942932,581.436462 586.702087,599.814758
	C564.694275,610.675598 541.212341,616.662476 517.070557,620.457214
	C512.627136,621.155579 507.716309,620.511230 503.843506,623.601379
	C503.910797,625.897217 505.507538,627.057861 506.575592,628.470154
	C511.325104,634.750488 515.220764,641.474243 518.083313,648.839722
	C523.770203,663.471924 526.078186,678.726624 526.103394,694.284058
	C526.159485,728.941406 526.233643,763.599487 525.426880,798.255798
	C525.033447,815.155212 537.210510,823.342712 553.245544,817.744385
	C570.107239,811.857605 586.390015,804.701416 602.207581,796.417419
	C663.102356,764.525635 711.700012,719.228271 748.419434,661.310059
	C785.594727,602.672852 805.382446,538.356201 808.563660,469.062195
	C810.057251,436.528687 807.671265,404.165802 801.105042,372.200043
	C793.143494,333.442047 779.886902,296.615662 760.840454,261.881012
	C729.782043,205.240494 687.349121,159.056717 633.247192,123.828064
	C578.669800,88.289818 518.743164,68.201439 453.669098,64.461166
	C410.295929,61.968208 367.556915,66.290283 325.792389,78.957466
	C244.376648,103.650848 178.646164,150.643311 128.448929,218.998093
	C81.740517,282.602081 57.190929,354.390594 53.485847,433.142395
	C52.201477,460.441833 53.748734,487.693878 58.216599,514.764221
	C67.296364,569.777527 86.768524,620.735291 117.572243,667.195068
	C164.268677,737.625122 227.174149,787.744873 307.439117,817.046082
z"/>
</svg>
